<svg width="36" height="36" viewBox="0 0 36 36" fill="none" xmlns="http://www.w3.org/2000/svg">
<circle cx="18" cy="18" r="18" fill="#F2F4FD"/>
<path d="M18.5059 23L17.5283 20.2246H13.707L12.7295 23H11L14.7188 12.9648H16.5371L20.249 23H18.5059ZM17.1045 18.8164L16.1543 16.082C16.1178 15.9635 16.0654 15.7972 15.9971 15.583C15.9287 15.3643 15.8604 15.1432 15.792 14.9199C15.7236 14.6921 15.6667 14.5007 15.6211 14.3457C15.5755 14.5326 15.5186 14.7422 15.4502 14.9746C15.3864 15.2025 15.3226 15.4167 15.2588 15.6172C15.1995 15.8177 15.154 15.9727 15.1221 16.082L14.165 18.8164H17.1045ZM21.5684 23V13.0059H23.209V23H21.5684Z" fill="#244ED9"/>
</svg>
