<svg width="20" height="20" viewBox="0 0 20 20" fill="none" xmlns="http://www.w3.org/2000/svg">
<path d="M16.8751 2.5H6.87508C6.70932 2.50001 6.55035 2.56586 6.43315 2.68307C6.31594 2.80028 6.25009 2.95924 6.25008 3.125V6.25008H3.125C2.95924 6.25009 2.80028 6.31594 2.68307 6.43315C2.56586 6.55035 2.50001 6.70932 2.5 6.87508V16.8751C2.50001 17.0408 2.56586 17.1998 2.68307 17.317C2.80028 17.4342 2.95924 17.5001 3.125 17.5001H13.125C13.2908 17.5001 13.4497 17.4342 13.5669 17.317C13.6841 17.1998 13.75 17.0408 13.75 16.8751V13.75H16.8751C17.0408 13.75 17.1998 13.6841 17.317 13.5669C17.4342 13.4497 17.5001 13.2908 17.5001 13.125V3.125C17.5001 2.95924 17.4342 2.80028 17.317 2.68307C17.1998 2.56586 17.0408 2.50001 16.8751 2.5ZM16.2501 12.5H13.75V6.87508C13.75 6.70932 13.6841 6.55035 13.5669 6.43315C13.4497 6.31594 13.2908 6.25009 13.125 6.25008H7.50008V3.75H16.2501V12.5Z" fill="#244ED9"/>
</svg>
