<svg width="20" height="20" viewBox="0 0 20 20" fill="none" xmlns="http://www.w3.org/2000/svg">
<g clip-path="url(#clip0_285_17626)">
<mask id="mask0_285_17626" style="mask-type:alpha" maskUnits="userSpaceOnUse" x="0" y="0" width="20" height="20">
<rect width="20" height="20" fill="#D9D9D9"/>
</mask>
<g mask="url(#mask0_285_17626)">
<path d="M5.458 13.2705C6.13867 13.2705 6.79833 13.3468 7.437 13.4995C8.07633 13.6522 8.70833 13.8815 9.333 14.1875V6.14552C8.76367 5.78418 8.14567 5.51318 7.479 5.33252C6.81233 5.15185 6.13867 5.06152 5.458 5.06152C4.972 5.06152 4.51033 5.09652 4.073 5.16652C3.63567 5.23585 3.19467 5.34685 2.75 5.49952C2.69467 5.52752 2.653 5.56218 2.625 5.60352C2.597 5.64552 2.583 5.68718 2.583 5.72852V13.4785C2.583 13.5618 2.611 13.6208 2.667 13.6555C2.72233 13.6902 2.77767 13.6938 2.833 13.6665C3.23633 13.5412 3.653 13.4438 4.083 13.3745C4.51367 13.3052 4.972 13.2705 5.458 13.2705ZM10.667 14.1875C11.2917 13.8815 11.9233 13.6522 12.562 13.4995C13.2013 13.3468 13.8543 13.2705 14.521 13.2705C15.021 13.2705 15.4827 13.3052 15.906 13.3745C16.33 13.4438 16.7503 13.5482 17.167 13.6875C17.2223 13.7148 17.2777 13.7112 17.333 13.6765C17.389 13.6418 17.417 13.5828 17.417 13.4995V5.79152C17.417 5.74952 17.403 5.70785 17.375 5.66652C17.347 5.62452 17.3053 5.58952 17.25 5.56152C16.778 5.39485 16.33 5.27018 15.906 5.18752C15.4827 5.10352 15.021 5.06152 14.521 5.06152C13.8543 5.06152 13.184 5.15185 12.51 5.33252C11.8367 5.51318 11.2223 5.78418 10.667 6.14552V14.1875ZM10 15.9375C9.90267 15.9375 9.81233 15.9235 9.729 15.8955C9.64567 15.8675 9.56233 15.8258 9.479 15.7705C8.86767 15.4092 8.22533 15.1245 7.552 14.9165C6.87867 14.7078 6.18067 14.6035 5.458 14.6035C4.94467 14.6035 4.438 14.6695 3.938 14.8015C3.438 14.9335 2.95167 15.1105 2.479 15.3325C2.201 15.4718 1.92667 15.4512 1.656 15.2705C1.38533 15.0898 1.25 14.8398 1.25 14.5205V5.39552C1.25 5.21485 1.295 5.05152 1.385 4.90552C1.47567 4.76018 1.60433 4.65252 1.771 4.58252C2.34033 4.29118 2.93733 4.07618 3.562 3.93752C4.18733 3.79818 4.81933 3.72852 5.458 3.72852C6.25 3.72852 7.03467 3.83618 7.812 4.05152C8.59 4.26685 9.31933 4.58285 10 4.99952C10.6947 4.58285 11.4203 4.26685 12.177 4.05152C12.9337 3.83618 13.715 3.72852 14.521 3.72852C15.1597 3.72852 15.7917 3.80152 16.417 3.94752C17.0417 4.09352 17.6457 4.30518 18.229 4.58252C18.3957 4.65252 18.5243 4.76018 18.615 4.90552C18.705 5.05152 18.75 5.21485 18.75 5.39552V14.5205C18.75 14.8538 18.611 15.1038 18.333 15.2705C18.0557 15.4372 17.764 15.4508 17.458 15.3115C16.986 15.0895 16.507 14.9162 16.021 14.7915C15.535 14.6662 15.035 14.6035 14.521 14.6035C13.8123 14.6035 13.1213 14.7078 12.448 14.9165C11.7747 15.1245 11.1323 15.4092 10.521 15.7705C10.4377 15.8258 10.3543 15.8675 10.271 15.8955C10.1877 15.9235 10.0973 15.9375 10 15.9375Z" fill="#0E1F58"/>
</g>
</g>
<defs>
<clipPath id="clip0_285_17626">
<rect width="20" height="20" fill="white"/>
</clipPath>
</defs>
</svg>
