<svg width="74" height="95" viewBox="0 0 74 95" fill="none" xmlns="http://www.w3.org/2000/svg">
<g clip-path="url(#clip0_614_6248)">
<path d="M12.4066 2.22498e-07H48.9751C49.2597 -0.000139279 49.5405 0.0653211 49.7953 0.191238C50.0502 0.317155 50.2722 0.500097 50.4439 0.725692L73.5033 25.5214C73.8168 25.8583 73.9907 26.3006 73.9899 26.7596L74 82.6696C74 86.0528 72.5996 89.1339 70.354 91.3686C68.0983 93.6095 64.9972 95 61.5934 95H12.4066C8.99642 95 5.8916 93.612 3.64338 91.3773C1.39778 89.1452 0 86.0618 0 82.6696V12.3304C0 8.93713 1.39647 5.85234 3.64207 3.62028C5.88898 1.38693 8.9938 2.22498e-07 12.4066 2.22498e-07ZM21.1761 44.0216C20.1586 44.0216 19.3323 43.2003 19.3323 42.1889C19.3323 41.1774 20.1586 40.356 21.1761 40.356H52.8238C53.8414 40.356 54.6677 41.1774 54.6677 42.1889C54.6677 43.2003 53.8414 44.0216 52.8238 44.0216H21.1761ZM21.1761 59.1334C20.1586 59.1334 19.3323 58.312 19.3323 57.3006C19.3323 56.2891 20.1586 55.4679 21.1761 55.4679H51.1473C52.1648 55.4679 52.9911 56.2891 52.9911 57.3006C52.9911 58.312 52.1648 59.1334 51.1473 59.1334H21.1761ZM21.1761 75.3146C20.1586 75.3146 19.3323 74.4932 19.3323 73.4819C19.3323 72.4703 20.1586 71.649 21.1761 71.649H46.5925C47.6102 71.649 48.4365 72.4703 48.4365 73.4819C48.4365 74.4932 47.6102 75.3146 46.5925 75.3146H21.1761ZM49.4985 5.08263V18.4813C49.7153 21.434 50.7595 23.7617 52.6047 25.3299C54.4763 26.9208 57.2313 27.8088 60.8508 27.8707L70.3121 27.8631V27.4637L49.4985 5.08263ZM70.3121 31.5285L60.8216 31.521C56.2899 31.4505 52.7414 30.2563 50.2146 28.1086C47.5925 25.8816 46.1186 22.6974 45.8284 18.7394L45.8107 18.4889V3.66561H12.4066C10.0115 3.66561 7.83167 4.64056 6.2502 6.21249C4.67116 7.782 3.68785 9.94979 3.68785 12.3304V82.6696C3.68785 85.0478 4.67116 87.2143 6.2515 88.7851C7.83297 90.357 10.0141 91.3346 12.4066 91.3346H61.5934C63.9859 91.3346 66.167 90.357 67.7498 88.7875C69.3288 87.2143 70.3121 85.0465 70.3121 82.6696V31.5285Z" fill="#244ED9"/>
</g>
<defs>
<clipPath id="clip0_614_6248">
<rect width="74" height="95" fill="white"/>
</clipPath>
</defs>
</svg>
