<svg width="88" height="50" viewBox="0 0 88 50" fill="none" xmlns="http://www.w3.org/2000/svg">
<path fill-rule="evenodd" clip-rule="evenodd" d="M66.8395 24.9688V8.62109H84.9353V34.1972H79.9076L78.384 40.3754C75.7021 41.0097 72.9585 41.3465 70.2029 41.3797C68.2654 41.3797 65.6437 41.0804 63.9362 39.5121C62.5391 38.2259 62.0015 36.3065 62.1021 34.1972H59.5552L58.1179 40.9999H53.7197L55.1743 34.1972H52.3543L48.0423 40.9999H44.291L44.2363 34.1972H42.2241L40.3268 40.9999H35.8539L37.8115 34.1972H27.9343V34.2174H26.9627L24.9332 41.02H20.4948L22.553 34.1972H15.1394L18.4193 41.02H13.4893L10.1231 34.1972H9.5482L7.51009 41.02H3.44824L8.07064 25.6133V8.62109H26.1578V23.53H27.6526V8.62109H45.7455V23.5069H47.2432V8.62109H65.3304V26.4219C65.7867 25.8912 66.292 25.4047 66.8395 24.9688ZM84.2885 33.5584H80.0542L80.7556 30.7585H72.2726L71.574 33.5584H67.4777V32.9829C67.5022 32.8615 67.5253 32.7375 67.5491 32.6106L67.5491 32.6101L67.5492 32.6098L67.5492 32.6096C67.5868 32.409 67.6256 32.201 67.6731 31.9843C68.4206 28.9629 70.4012 25.9759 73.8306 25.9759C75.1846 25.9759 76.5328 26.4939 76.3488 28.3701H81.3966C81.595 27.5068 81.9284 26.0018 80.9769 24.6292C79.8989 23.1386 77.7343 22.54 74.923 22.54C72.9251 22.54 70.0016 22.8595 67.4777 24.5112V9.25991H84.2885V33.5584ZM74.368 37.6648C73.4365 37.8447 72.4908 37.941 71.5422 37.9525C69.1189 37.9525 67.4315 36.8245 67.397 34.1944H75.2275L74.368 37.6648ZM64.6809 27.2709V23.789L64.6895 9.26861H47.8845V33.5642H48.3502L54.7088 23.53H61.8149L59.7049 33.5585H62.1742C62.225 33.0621 62.3144 32.5704 62.4416 32.088C62.8737 30.3538 63.6338 28.7186 64.6809 27.2709ZM55.2979 33.5583H52.7682L56.5944 27.5326L55.2979 33.5583ZM40.8902 23.507H45.0929L45.0871 9.26861H28.2964V23.5012H31.6339C31.7822 23.5012 31.9319 23.5006 32.0824 23.5C33.9771 23.4919 36.0033 23.4832 37.0525 24.7415C37.8114 25.6566 37.9782 26.8738 37.6275 28.727C37.1991 31.1125 35.8164 32.7182 33.5455 33.5585H38.0155L40.8902 23.507ZM42.4053 33.5584L44.1732 27.2709L44.2365 33.5584H42.4053ZM29.9361 31.1795L29.9362 31.1795C30.0181 31.1746 30.0973 31.1699 30.1765 31.1699L30.1937 31.1786C32.2577 31.0203 32.9016 30.229 33.4075 28.675C33.7036 27.7715 33.7353 27.1787 33.4852 26.8334C33.1574 26.3758 32.2749 26.2953 30.8376 26.2953H30.0069H29.2767L28.7018 28.4362L28.4661 29.3513L27.9688 31.1901H29.0439H29.6619C29.7584 31.1901 29.8487 31.1847 29.9361 31.1795L29.9361 31.1795ZM25.5225 24.4077L25.258 25.271L22.8548 33.2793L22.76 33.5671H14.8318L14.2137 32.252L22.7312 23.53H17.2694L10.6003 30.724L12.7592 23.53H8.71168V9.26861H25.5052L25.5225 24.4077Z" fill="white"/>
</svg>
