<svg width="44" height="48" viewBox="0 0 44 48" fill="none" xmlns="http://www.w3.org/2000/svg">
<rect y="2" width="44" height="44" rx="22" fill="#244ED9"/>
<path d="M15.2186 18.1676H28.0921V28.1676H16.1599L15.2186 29.1426V18.1676ZM15.2186 16.501C14.3335 16.501 13.6174 17.251 13.6174 18.1676L13.6094 33.1676L16.8278 29.8343H28.0921C28.9772 29.8343 29.7013 29.0843 29.7013 28.1676V18.1676C29.7013 17.251 28.9772 16.501 28.0921 16.501H15.2186ZM16.8278 24.8343H23.2645V26.501H16.8278V24.8343ZM16.8278 22.3343H26.4829V24.001H16.8278V22.3343ZM16.8278 19.8343H26.4829V21.501H16.8278V19.8343Z" fill="white"/>
<path d="M26.3222 23.167V23.667H26.8222H28.8448H29.3448V23.167V20.6783H31.8335H32.3335V20.1783V18.1557V17.6557H31.8335H29.3448V15.167V14.667H28.8448H26.8222H26.3222V15.167V17.6557H23.8335H23.3335V18.1557V20.1783V20.6783H23.8335H26.3222V23.167Z" fill="white" stroke="#244ED9"/>
</svg>
