<svg width="27" height="27" viewBox="0 0 27 27" fill="none" xmlns="http://www.w3.org/2000/svg">
<path d="M3.86267 7H19.3109V19H4.99233L3.86267 20.17V7ZM3.86267 5C2.80061 5 1.9413 5.9 1.9413 7L1.93164 25L5.79371 21H19.3109C20.373 21 21.242 20.1 21.242 19V7C21.242 5.9 20.373 5 19.3109 5H3.86267ZM5.79371 15H13.5178V17H5.79371V15ZM5.79371 12H17.3799V14H5.79371V12ZM5.79371 9H17.3799V11H5.79371V9Z" fill="white"/>
<path d="M18.8891 11.5996V12.0996H19.3891H21.4117H21.9117V11.5996V9.11091H24.4004H24.9004V8.61091V6.58831V6.08831H24.4004H21.9117V3.59961V3.09961H21.4117H19.3891H18.8891V3.59961V6.08831H16.4004H15.9004V6.58831V8.61091V9.11091H16.4004H18.8891V11.5996Z" fill="white" stroke="#244ED9"/>
</svg>
