<svg width="25" height="24" viewBox="0 0 25 24" fill="none" xmlns="http://www.w3.org/2000/svg">
<path d="M20 6H12L10 4H4C2.9 4 2.01 4.9 2.01 6L2 18C2 19.1 2.9 20 4 20H20.77C21.45 20 22 19.44 22 18.77V8C22 6.9 21.1 6 20 6ZM20 18H4V6H9.17L11.17 8H20V18ZM18 12H6V10H18V12ZM14 16H6V14H14V16Z" fill="white"/>
<path d="M18.4887 12V12.5H18.9887H21.0113H21.5113V12V9.5113H24H24.5V9.0113V6.9887V6.4887H24H21.5113V4V3.5H21.0113H18.9887H18.4887V4V6.4887H16H15.5V6.9887V9.0113V9.5113H16H18.4887V12Z" fill="white" stroke="#244ED9"/>
</svg>
