<svg width="20" height="20" viewBox="0 0 20 20" fill="none" xmlns="http://www.w3.org/2000/svg">
<path d="M18.2813 7.19688C18.1053 6.99744 17.8888 6.83773 17.6464 6.72836C17.4039 6.61898 17.141 6.56245 16.875 6.5625H12.5V5.3125C12.5 4.4837 12.1708 3.68884 11.5847 3.10279C10.9987 2.51674 10.2038 2.1875 9.375 2.1875C9.25889 2.18742 9.14505 2.21968 9.04625 2.28067C8.94744 2.34167 8.86759 2.42898 8.81563 2.53281L5.86406 8.4375H2.5C2.16848 8.4375 1.85054 8.5692 1.61612 8.80362C1.3817 9.03804 1.25 9.35598 1.25 9.6875V16.5625C1.25 16.894 1.3817 17.212 1.61612 17.4464C1.85054 17.6808 2.16848 17.8125 2.5 17.8125H15.9375C16.3943 17.8127 16.8354 17.646 17.1781 17.344C17.5208 17.0419 17.7413 16.6251 17.7984 16.1719L18.7359 8.67188C18.7692 8.40783 18.7458 8.13974 18.6674 7.88542C18.589 7.6311 18.4574 7.39638 18.2813 7.19688ZM2.5 9.6875H5.625V16.5625H2.5V9.6875ZM17.4953 8.51562L16.5578 16.0156C16.5388 16.1667 16.4653 16.3056 16.351 16.4063C16.2368 16.507 16.0898 16.5626 15.9375 16.5625H6.875V9.21016L9.74297 3.47344C10.168 3.55851 10.5505 3.78825 10.8253 4.12355C11.1 4.45885 11.2501 4.879 11.25 5.3125V7.1875C11.25 7.35326 11.3158 7.51223 11.4331 7.62944C11.5503 7.74665 11.7092 7.8125 11.875 7.8125H16.875C16.9637 7.81247 17.0514 7.83132 17.1322 7.86778C17.2131 7.90425 17.2852 7.95751 17.3439 8.02402C17.4026 8.09053 17.4464 8.16876 17.4725 8.25352C17.4986 8.33828 17.5064 8.42763 17.4953 8.51562Z" fill="#244ED9"/>
</svg>
