<svg width="20" height="20" viewBox="0 0 20 20" fill="none" xmlns="http://www.w3.org/2000/svg">
<path d="M1.71972 12.8031C1.89572 13.0026 2.11213 13.1623 2.35458 13.2716C2.59704 13.381 2.85999 13.4376 3.12597 13.4375H7.50098V14.6875C7.50098 15.5163 7.83022 16.3112 8.41627 16.8972C9.00232 17.4833 9.79717 17.8125 10.626 17.8125C10.7421 17.8126 10.8559 17.7803 10.9547 17.7193C11.0535 17.6583 11.1334 17.571 11.1854 17.4672L14.1369 11.5625H17.501C17.8325 11.5625 18.1504 11.4308 18.3849 11.1964C18.6193 10.962 18.751 10.644 18.751 10.3125V3.4375C18.751 3.10598 18.6193 2.78804 18.3849 2.55362C18.1504 2.3192 17.8325 2.1875 17.501 2.1875H4.06347C3.60667 2.18734 3.16553 2.35395 2.82288 2.65604C2.48022 2.95812 2.25964 3.37491 2.20254 3.82812L1.26504 11.3281C1.23181 11.5922 1.25517 11.8603 1.33357 12.1146C1.41196 12.3689 1.5436 12.6036 1.71972 12.8031ZM17.501 10.3125H14.376V3.4375H17.501V10.3125ZM2.50566 11.4844L3.44316 3.98438C3.4622 3.8333 3.53572 3.69437 3.64994 3.59368C3.76416 3.49298 3.91121 3.43745 4.06347 3.4375H13.126V10.7898L10.258 16.5266C9.83294 16.4415 9.45048 16.2118 9.17571 15.8765C8.90095 15.5412 8.75085 15.121 8.75098 14.6875V12.8125C8.75098 12.6467 8.68513 12.4878 8.56792 12.3706C8.45071 12.2533 8.29174 12.1875 8.12598 12.1875H3.12597C3.03728 12.1875 2.9496 12.1687 2.86876 12.1322C2.78791 12.0957 2.71576 12.0425 2.65708 11.976C2.59841 11.9095 2.55456 11.8312 2.52845 11.7465C2.50234 11.6617 2.49458 11.5724 2.50566 11.4844Z" fill="#244ED9"/>
</svg>
