<svg width="24" height="24" viewBox="0 0 24 24" fill="none" xmlns="http://www.w3.org/2000/svg">
<g id="24/users">
<mask id="mask0_963_49039" style="mask-type:alpha" maskUnits="userSpaceOnUse" x="0" y="0" width="24" height="24">
<rect id="Bounding box" width="24" height="24" fill="#D9D9D9"/>
</mask>
<g mask="url(#mask0_963_49039)">
<path id="group" d="M2.70078 19.2992C2.45078 19.2992 2.23811 19.2159 2.06278 19.0492C1.88811 18.8826 1.80078 18.6659 1.80078 18.3992V17.0742C1.80078 16.5576 1.93411 16.0992 2.20078 15.6992C2.46745 15.2992 2.82578 14.9826 3.27578 14.7492C4.22578 14.2992 5.18011 13.9452 6.13878 13.6872C7.09678 13.4286 8.15078 13.2992 9.30078 13.2992C10.4508 13.2992 11.5051 13.4286 12.4638 13.6872C13.4218 13.9452 14.3758 14.2992 15.3258 14.7492C15.7758 14.9826 16.1341 15.2992 16.4008 15.6992C16.6674 16.0992 16.8008 16.5576 16.8008 17.0742V18.3992C16.8008 18.6659 16.7134 18.8826 16.5388 19.0492C16.3634 19.2159 16.1508 19.2992 15.9008 19.2992H2.70078ZM18.4008 19.2992C18.5341 19.1992 18.6341 19.0702 18.7008 18.9122C18.7675 18.7536 18.8008 18.5826 18.8008 18.3992V16.9492C18.8008 16.2992 18.6381 15.6782 18.3128 15.0862C17.9881 14.4949 17.5341 13.9826 16.9508 13.5492C17.6174 13.6492 18.2508 13.8032 18.8508 14.0112C19.4508 14.2199 20.0258 14.4659 20.5758 14.7492C21.0924 15.0326 21.4924 15.3619 21.7758 15.7372C22.0591 16.1119 22.2008 16.5159 22.2008 16.9492V18.3992C22.2008 18.6659 22.1134 18.8826 21.9388 19.0492C21.7634 19.2159 21.5508 19.2992 21.3008 19.2992H18.4008ZM9.30078 11.6992C8.33411 11.6992 7.50911 11.3532 6.82578 10.6612C6.14245 9.96989 5.80078 9.14922 5.80078 8.19922C5.80078 7.23255 6.14245 6.40755 6.82578 5.72422C7.50911 5.04089 8.33411 4.69922 9.30078 4.69922C10.2674 4.69922 11.0924 5.04089 11.7758 5.72422C12.4591 6.40755 12.8008 7.23255 12.8008 8.19922C12.8008 9.14922 12.4591 9.96989 11.7758 10.6612C11.0924 11.3532 10.2674 11.6992 9.30078 11.6992ZM17.9258 8.19922C17.9258 9.14922 17.5841 9.96989 16.9008 10.6612C16.2174 11.3532 15.3924 11.6992 14.4258 11.6992C14.3258 11.6992 14.1881 11.6866 14.0128 11.6612C13.8381 11.6366 13.6924 11.6076 13.5758 11.5742C13.9758 11.0909 14.2801 10.5619 14.4888 9.98722C14.6968 9.41189 14.8008 8.81589 14.8008 8.19922C14.8008 7.56589 14.6924 6.96589 14.4758 6.39922C14.2591 5.83255 13.9591 5.30755 13.5758 4.82422C13.7091 4.77422 13.8508 4.74089 14.0008 4.72422C14.1508 4.70755 14.2924 4.69922 14.4258 4.69922C15.3924 4.69922 16.2174 5.04089 16.9008 5.72422C17.5841 6.40755 17.9258 7.23255 17.9258 8.19922ZM3.30078 17.7992H15.3008V17.0742C15.3008 16.8742 15.2468 16.6909 15.1388 16.5242C15.0301 16.3576 14.8674 16.2159 14.6508 16.0992C13.8174 15.6826 12.9674 15.3616 12.1008 15.1362C11.2341 14.9116 10.3008 14.7992 9.30078 14.7992C8.30078 14.7992 7.36345 14.9116 6.48878 15.1362C5.61345 15.3616 4.76745 15.6826 3.95078 16.0992C3.71745 16.2159 3.55078 16.3576 3.45078 16.5242C3.35078 16.6909 3.30078 16.8742 3.30078 17.0742V17.7992ZM9.30078 10.1992C9.85078 10.1992 10.3218 10.0032 10.7138 9.61122C11.1051 9.21989 11.3008 8.74922 11.3008 8.19922C11.3008 7.64922 11.1051 7.17822 10.7138 6.78622C10.3218 6.39489 9.85078 6.19922 9.30078 6.19922C8.75078 6.19922 8.28012 6.39489 7.88878 6.78622C7.49678 7.17822 7.30078 7.64922 7.30078 8.19922C7.30078 8.74922 7.49678 9.21989 7.88878 9.61122C8.28012 10.0032 8.75078 10.1992 9.30078 10.1992Z" fill="white"/>
</g>
</g>
</svg>
