<svg width="36" height="36" viewBox="0 0 36 36" fill="none" xmlns="http://www.w3.org/2000/svg">
<circle cx="18" cy="18" r="18" fill="#1E49E2"/>
<path d="M13.5713 15.2568C13.0928 15.2568 12.6644 15.3434 12.2861 15.5166C11.9124 15.6898 11.5957 15.9404 11.3359 16.2686C11.0762 16.5921 10.8779 16.9863 10.7412 17.4512C10.6045 17.9115 10.5361 18.431 10.5361 19.0098C10.5361 19.7845 10.6455 20.4521 10.8643 21.0127C11.083 21.5687 11.4157 21.9971 11.8623 22.2979C12.3089 22.5941 12.874 22.7422 13.5576 22.7422C13.9814 22.7422 14.3939 22.7012 14.7949 22.6191C15.196 22.5371 15.6107 22.4255 16.0391 22.2842V23.6787C15.6335 23.8382 15.2233 23.9544 14.8086 24.0273C14.3939 24.1003 13.9154 24.1367 13.373 24.1367C12.3522 24.1367 11.5046 23.9248 10.8301 23.501C10.1602 23.0771 9.65885 22.4801 9.32617 21.71C8.99805 20.9398 8.83398 20.0374 8.83398 19.0029C8.83398 18.2464 8.9388 17.5537 9.14844 16.9248C9.35807 16.2959 9.66341 15.7536 10.0645 15.2979C10.4655 14.8376 10.96 14.4844 11.5479 14.2383C12.1403 13.9876 12.8171 13.8623 13.5781 13.8623C14.0794 13.8623 14.5716 13.9193 15.0547 14.0332C15.5423 14.1426 15.9935 14.2998 16.4082 14.5049L15.834 15.8584C15.4876 15.6943 15.1253 15.5531 14.7471 15.4346C14.3688 15.3161 13.9769 15.2568 13.5713 15.2568ZM22.4443 15.2568C21.9658 15.2568 21.5374 15.3434 21.1592 15.5166C20.7855 15.6898 20.4688 15.9404 20.209 16.2686C19.9492 16.5921 19.751 16.9863 19.6143 17.4512C19.4775 17.9115 19.4092 18.431 19.4092 19.0098C19.4092 19.7845 19.5186 20.4521 19.7373 21.0127C19.9561 21.5687 20.2887 21.9971 20.7354 22.2979C21.182 22.5941 21.7471 22.7422 22.4307 22.7422C22.8545 22.7422 23.2669 22.7012 23.668 22.6191C24.069 22.5371 24.4837 22.4255 24.9121 22.2842V23.6787C24.5065 23.8382 24.0964 23.9544 23.6816 24.0273C23.2669 24.1003 22.7884 24.1367 22.2461 24.1367C21.2253 24.1367 20.3776 23.9248 19.7031 23.501C19.0332 23.0771 18.5319 22.4801 18.1992 21.71C17.8711 20.9398 17.707 20.0374 17.707 19.0029C17.707 18.2464 17.8118 17.5537 18.0215 16.9248C18.2311 16.2959 18.5365 15.7536 18.9375 15.2979C19.3385 14.8376 19.833 14.4844 20.4209 14.2383C21.0133 13.9876 21.6901 13.8623 22.4512 13.8623C22.9525 13.8623 23.4447 13.9193 23.9277 14.0332C24.4154 14.1426 24.8665 14.2998 25.2812 14.5049L24.707 15.8584C24.3607 15.6943 23.9984 15.5531 23.6201 15.4346C23.2419 15.3161 22.8499 15.2568 22.4443 15.2568Z" fill="white"/>
</svg>
